# xmcd CD database file
#
# Track frame offsets:
#	150
#	18055
#	40677
#	65902
#	87425
#	120990
#	165029
#	193111
#	221526
#	246649
#	277604
#	300569
#
# Disc length: 4513 seconds
#
# Revision: 0
# Processed by: cddbd v1.5.2PL0 Copyright (c) Steve Scherf et al.
# Submitted via: CDex 1.50Beta3
#
DISCID=96119f0c
DTITLE=Clark Terry - Storyville Masters of Jazz
DYEAR=2006
DGENRE=Jazz
TTITLE0=Serenade to a bus Seat
TTITLE1=Pea-eyes
TTITLE2=Pannonica
TTITLE3=Daniel's Blues
TTITLE4=Ow
TTITLE5=Just an old Manuscript
TTITLE6=Mack the Knife
TTITLE7=Take the a Train
TTITLE8=Straight no Chaser
TTITLE9=God Bless the Child
TTITLE10=Did you Call her Today
TTITLE11=The Theme
EXTD=YEAR: 2006
EXTT0=
EXTT1=
EXTT2=
EXTT3=
EXTT4=
EXTT5=
EXTT6=
EXTT7=
EXTT8=
EXTT9=
EXTT10=
EXTT11=
PLAYORDER=
